<?xml version="1.0" encoding="utf-8"?>
<!-- Generator: Adobe Illustrator 16.0.0, SVG Export Plug-In . SVG Version: 6.00 Build 0)  -->
<!DOCTYPE svg PUBLIC "-//W3C//DTD SVG 1.1//EN" "http://www.w3.org/Graphics/SVG/1.1/DTD/svg11.dtd">
<svg version="1.1" id="Layer_1" xmlns="http://www.w3.org/2000/svg" xmlns:xlink="http://www.w3.org/1999/xlink" x="0px" y="0px"
	 width="176.991px" height="46.498px" viewBox="0 0 176.991 46.498" enable-background="new 0 0 176.991 46.498"
	 xml:space="preserve">
<g>
	<path fill="#8A8C8E" d="M11.571,14.941h1.382l5.033,10.303l5.033-10.303h1.382v13.911h-1.166V16.668l-4.773,9.763h-0.929
		l-4.795-9.763v12.183h-1.166V14.941z"/>
	<path fill="#8A8C8E" d="M31.939,14.941h1.512L38.7,28.852h-1.209l-1.534-4.061h-6.523L27.9,28.852h-1.231L31.939,14.941z
		 M35.676,23.818l-3.002-7.927l-2.981,7.927H35.676z"/>
	<path fill="#8A8C8E" d="M41.508,14.941h5.81c1.411,0,2.455,0.363,3.132,1.091c0.676,0.727,1.015,1.746,1.015,3.056
		c0,1.08-0.259,1.959-0.777,2.636s-1.282,1.109-2.29,1.296c0.302,0.145,0.529,0.32,0.68,0.529s0.327,0.529,0.529,0.961l1.857,4.342
		h-1.209l-1.836-4.191c-0.159-0.359-0.324-0.634-0.497-0.82c-0.173-0.188-0.411-0.328-0.713-0.422
		c-0.303-0.094-0.72-0.141-1.253-0.141h-3.262v5.574h-1.188V14.941z M46.973,22.328c2.204,0,3.305-1.08,3.305-3.24
		c0-2.116-1.016-3.175-3.046-3.175h-4.536v6.415H46.973z"/>
	<path fill="#8A8C8E" d="M55.137,27.252c-1.065-1.208-1.598-2.865-1.598-4.967c0-2.391,0.507-4.248,1.523-5.573
		c1.015-1.324,2.631-1.986,4.849-1.986c1.469,0,2.793,0.208,3.974,0.626v1.059c-1.166-0.433-2.455-0.648-3.866-0.648
		c-1.915,0-3.28,0.559-4.093,1.674c-0.814,1.116-1.22,2.732-1.22,4.85c0,3.845,1.793,5.768,5.378,5.768
		c0.662,0,1.329-0.051,1.998-0.152c0.67-0.1,1.271-0.244,1.804-0.432v1.059c-1.152,0.359-2.47,0.539-3.953,0.539
		C57.801,29.066,56.203,28.463,55.137,27.252z"/>
	<path fill="#8A8C8E" d="M66.693,14.941h9.093v0.972h-7.905v5.508h7.149v0.95h-7.149v5.53h7.905v0.951h-9.093V14.941z"/>
	<path fill="#8A8C8E" d="M78.378,14.941h1.188V27.9h7.689v0.951h-8.878V14.941z"/>
	<path fill="#8A8C8E" d="M94.147,14.941h1.512l5.248,13.911h-1.209l-1.533-4.061h-6.523l-1.534,4.061h-1.231L94.147,14.941z
		 M97.883,23.818l-3.002-7.927L91.9,23.818H97.883z"/>
	<path fill="#8A8C8E" d="M112.139,14.941h6.113c1.339,0,2.321,0.31,2.947,0.929c0.627,0.619,0.94,1.52,0.94,2.7
		c0,0.763-0.159,1.403-0.476,1.922s-0.764,0.907-1.339,1.167c1.584,0.359,2.376,1.447,2.376,3.261c0,1.354-0.335,2.348-1.005,2.981
		c-0.669,0.635-1.681,0.951-3.034,0.951h-6.523V14.941z M118.36,21.205c0.922,0,1.595-0.23,2.02-0.691
		c0.425-0.46,0.637-1.087,0.637-1.879c0-0.936-0.219-1.627-0.658-2.073s-1.228-0.67-2.365-0.67h-4.666v5.313H118.36z
		 M118.554,27.922c1.037,0,1.793-0.234,2.269-0.701c0.475-0.469,0.713-1.25,0.713-2.344c0-0.936-0.249-1.627-0.746-2.073
		c-0.496-0.446-1.35-0.67-2.56-0.67h-4.903v5.789H118.554z"/>
	<path fill="#8A8C8E" d="M126.071,27.273c-1.022-1.194-1.533-2.965-1.533-5.313c0-2.491,0.504-4.319,1.512-5.486
		c1.008-1.166,2.584-1.749,4.73-1.749c2.146,0,3.722,0.583,4.73,1.749c1.008,1.167,1.512,2.995,1.512,5.486
		c0,2.348-0.512,4.119-1.533,5.313c-1.023,1.195-2.593,1.793-4.709,1.793C128.663,29.066,127.093,28.469,126.071,27.273z
		 M134.592,26.572c0.828-0.986,1.242-2.524,1.242-4.612c0-1.512-0.184-2.722-0.551-3.629s-0.918-1.562-1.653-1.965
		c-0.734-0.403-1.685-0.605-2.851-0.605c-1.167,0-2.121,0.202-2.862,0.605s-1.296,1.058-1.663,1.965s-0.551,2.117-0.551,3.629
		c0,2.088,0.414,3.626,1.242,4.612c0.828,0.986,2.105,1.48,3.834,1.48C132.493,28.053,133.764,27.559,134.592,26.572z"/>
	<path fill="#8A8C8E" d="M139.831,14.941h5.81c1.411,0,2.455,0.363,3.132,1.091c0.677,0.727,1.016,1.746,1.016,3.056
		c0,1.08-0.26,1.959-0.777,2.636c-0.519,0.677-1.282,1.109-2.29,1.296c0.303,0.145,0.529,0.32,0.681,0.529s0.327,0.529,0.529,0.961
		l1.857,4.342h-1.21l-1.836-4.191c-0.158-0.359-0.323-0.634-0.497-0.82c-0.172-0.188-0.41-0.328-0.712-0.422
		c-0.303-0.094-0.721-0.141-1.253-0.141h-3.262v5.574h-1.188V14.941z M145.294,22.328c2.204,0,3.306-1.08,3.306-3.24
		c0-2.116-1.016-3.175-3.046-3.175h-4.536v6.415H145.294z"/>
	<path fill="#8A8C8E" d="M152.618,14.941h1.188v13.911h-1.188V14.941z"/>
	<path fill="#8A8C8E" d="M157.045,14.941h1.123l8.618,12.139V14.941h1.188v13.911h-1.145l-8.597-12.118v12.118h-1.188V14.941z"/>
</g>
<g>
	<path d="M112.704,37.297h-0.572l1.647-4.33h0.646l1.64,4.33H115.5l-0.456-1.19h-1.884L112.704,37.297z M113.254,35.669h1.688
		l-0.847-2.225L113.254,35.669z"/>
	<path d="M119.877,35.107c-0.157,0.21-0.385,0.349-0.686,0.421c0.085,0.05,0.149,0.105,0.194,0.172
		c0.045,0.063,0.097,0.163,0.155,0.293l0.563,1.304h-0.563l-0.552-1.257c-0.063-0.144-0.138-0.243-0.225-0.297
		c-0.088-0.053-0.23-0.08-0.427-0.08h-0.915v1.634h-0.551v-4.33h1.902c0.452,0,0.788,0.118,1.009,0.354
		c0.219,0.233,0.328,0.564,0.328,0.991C120.112,34.633,120.035,34.9,119.877,35.107z M119.561,34.312
		c0-0.605-0.289-0.908-0.868-0.908h-1.27v1.829h1.197C119.247,35.233,119.561,34.925,119.561,34.312z"/>
	<path d="M122.406,37.297h-0.552v-3.893h-1.439v-0.438h3.43v0.438h-1.438V37.297z"/>
	<path d="M124.516,32.967h0.552v4.33h-0.552V32.967z"/>
	<path d="M128.52,37.054c-0.28,0.206-0.693,0.311-1.24,0.311c-0.537,0-0.973-0.067-1.305-0.201v-0.491
		c0.395,0.146,0.814,0.222,1.258,0.222c0.399,0,0.691-0.054,0.877-0.162c0.187-0.107,0.279-0.295,0.279-0.563
		c0-0.165-0.038-0.299-0.118-0.4c-0.077-0.101-0.2-0.186-0.37-0.257c-0.167-0.067-0.412-0.141-0.735-0.219
		c-0.475-0.116-0.809-0.266-1.002-0.449c-0.192-0.185-0.289-0.435-0.289-0.754c0-0.376,0.136-0.667,0.407-0.877
		c0.271-0.208,0.67-0.312,1.2-0.312c0.232,0,0.457,0.016,0.676,0.049c0.217,0.035,0.39,0.074,0.521,0.118v0.483
		c-0.341-0.119-0.71-0.181-1.109-0.181c-0.381,0-0.666,0.058-0.857,0.168c-0.19,0.112-0.285,0.297-0.285,0.551
		c0,0.148,0.034,0.267,0.101,0.356c0.066,0.089,0.18,0.168,0.339,0.232c0.16,0.064,0.396,0.135,0.71,0.213
		c0.506,0.12,0.86,0.281,1.062,0.487c0.201,0.204,0.302,0.466,0.302,0.79C128.94,36.553,128.8,36.85,128.52,37.054z"/>
	<path d="M131.3,37.297h-0.551v-3.893h-1.439v-0.438h3.43v0.438H131.3V37.297z"/>
	<path d="M133.008,37.297h-0.572l1.648-4.33h0.646l1.64,4.33h-0.565l-0.455-1.19h-1.884L133.008,37.297z M133.559,35.669h1.688
		l-0.848-2.225L133.559,35.669z"/>
	<path d="M142.586,35.364c-0.258,0.244-0.609,0.365-1.053,0.365h-1.25v1.567h-0.552v-4.33h1.828c0.467,0,0.818,0.127,1.057,0.38
		c0.236,0.254,0.355,0.592,0.355,1.019C142.972,34.786,142.842,35.119,142.586,35.364z M142.173,35.051
		c0.165-0.166,0.247-0.395,0.247-0.686c0-0.311-0.077-0.546-0.235-0.714c-0.156-0.166-0.391-0.247-0.704-0.247h-1.197V35.3h1.162
		C141.764,35.3,142.006,35.216,142.173,35.051z"/>
	<path d="M146.503,36.866v0.431h-2.858v-4.33h0.552v3.899H146.503z"/>
	<path d="M147.511,37.297h-0.571l1.646-4.33h0.646l1.64,4.33h-0.565l-0.456-1.19h-1.883L147.511,37.297z M148.062,35.669h1.688
		l-0.848-2.225L148.062,35.669z M149.044,31.541h0.497l-0.531,1.131h-0.443L149.044,31.541z"/>
	<path d="M153.888,37.054c-0.28,0.206-0.693,0.311-1.24,0.311c-0.538,0-0.973-0.067-1.305-0.201v-0.491
		c0.395,0.146,0.813,0.222,1.258,0.222c0.398,0,0.69-0.054,0.877-0.162c0.186-0.107,0.279-0.295,0.279-0.563
		c0-0.165-0.039-0.299-0.116-0.4c-0.081-0.101-0.202-0.186-0.371-0.257c-0.168-0.067-0.414-0.141-0.737-0.219
		c-0.475-0.116-0.809-0.266-1.001-0.449c-0.192-0.185-0.289-0.435-0.289-0.754c0-0.376,0.137-0.667,0.407-0.877
		c0.271-0.208,0.671-0.312,1.199-0.312c0.234,0,0.459,0.016,0.677,0.049c0.218,0.035,0.391,0.074,0.521,0.118v0.483
		c-0.341-0.119-0.71-0.181-1.109-0.181c-0.381,0-0.668,0.058-0.857,0.168c-0.19,0.112-0.285,0.297-0.285,0.551
		c0,0.148,0.032,0.267,0.101,0.356c0.066,0.089,0.181,0.168,0.341,0.232c0.157,0.064,0.394,0.135,0.708,0.213
		c0.506,0.12,0.86,0.281,1.062,0.487c0.202,0.204,0.304,0.466,0.304,0.79C154.309,36.553,154.168,36.85,153.888,37.054z"/>
	<path d="M156.669,37.297h-0.553v-3.893h-1.438v-0.438h3.43v0.438h-1.438V37.297z"/>
	<path d="M158.78,32.967h0.551v4.33h-0.551V32.967z"/>
	<path d="M163.466,36.698v0.491c-0.377,0.117-0.793,0.175-1.249,0.175c-0.682,0-1.199-0.189-1.551-0.572
		c-0.353-0.381-0.528-0.901-0.528-1.566c0-0.734,0.169-1.306,0.508-1.715c0.338-0.407,0.859-0.61,1.563-0.61
		c0.462,0,0.88,0.066,1.257,0.201v0.483c-0.382-0.143-0.784-0.215-1.21-0.215c-0.562,0-0.962,0.158-1.204,0.471
		c-0.241,0.313-0.362,0.776-0.362,1.385c0,1.111,0.526,1.668,1.579,1.668C162.722,36.894,163.121,36.828,163.466,36.698z"/>
	<path d="M164.542,37.297h-0.57l1.646-4.33h0.645l1.642,4.33h-0.564l-0.458-1.19H165L164.542,37.297z M165.094,35.669h1.687
		l-0.847-2.225L165.094,35.669z"/>
</g>
</svg>
